<!--?xml version="1.0" standalone="no"?-->
              <svg id="sw-js-blob-svg" viewBox="0 0 100 100" xmlns="http://www.w3.org/2000/svg" version="1.1">
                    <defs> 
                        <linearGradient id="sw-gradient" x1="0" x2="1" y1="1" y2="0">
                            <stop id="stop1" stop-color="rgba(200.428, 78.149, 78.149, 1)" offset="0%"></stop>
                            <stop id="stop2" stop-color="rgba(255, 251.109, 4.409, 1)" offset="100%"></stop>
                        </linearGradient>
                    </defs>
                <path fill="url(#sw-gradient)" d="M14,-21.7C20.4,-20.5,29.3,-21.3,35.6,-18C41.9,-14.7,45.6,-7.4,44.6,-0.6C43.6,6.3,38.1,12.5,34,19.6C29.8,26.6,27.1,34.4,21.7,34.7C16.2,35,8.1,27.8,1.9,24.5C-4.3,21.2,-8.6,21.8,-12.4,20.6C-16.1,19.3,-19.3,16.1,-22,12.4C-24.8,8.6,-27.1,4.3,-29.9,-1.6C-32.6,-7.5,-35.8,-15,-35,-22.1C-34.2,-29.2,-29.4,-35.9,-22.9,-37C-16.4,-38.1,-8.2,-33.5,-2.2,-29.7C3.8,-25.9,7.6,-22.8,14,-21.7Z" width="100%" height="100%" transform="translate(50 50)" stroke-width="0" style="transition: all 0.3s ease 0s;" stroke="url(#sw-gradient)"></path>
              </svg>